<svg width="48" height="48" viewBox="0 0 48 48" fill="none" xmlns="http://www.w3.org/2000/svg">
<path d="M25.1865 17.04H12.96V12.24H25.1865C26.8484 12.24 28.7476 12.42 30.2908 13.2C31.834 13.98 33.4365 15.12 33.7332 16.92C34.03 18.72 33.8519 19.56 33.2584 21C32.6649 22.44 30.7656 23.4 30.7656 23.4C30.7656 23.4 33.1397 24.48 33.9706 25.68C34.8016 26.88 35.039 28.2 34.9203 29.64C34.8016 31.08 34.3267 32.64 33.1397 33.6C31.9527 34.56 31.3591 34.86 29.6973 35.28C28.0354 35.7 25.8987 35.64 25.1865 35.64H12.96V30.84H25.1865C25.1865 30.84 28.3915 30.84 28.2728 28.44C28.1541 26.04 25.1865 26.16 25.1865 26.16H12.96V21.48H25.1865C25.1865 21.48 27.2045 21.12 27.2045 19.2C27.2045 17.28 25.1865 17.04 25.1865 17.04Z" fill="#F4F4F4"/>
</svg>
